<?xml version="1.0" encoding="UTF-8" standalone="no"?><!DOCTYPE svg PUBLIC "-//W3C//DTD SVG 1.1//EN" "http://www.w3.org/Graphics/SVG/1.1/DTD/svg11.dtd"><svg width="100%" height="100%" viewBox="0 0 677 677" version="1.1" xmlns="http://www.w3.org/2000/svg" xmlns:xlink="http://www.w3.org/1999/xlink" xml:space="preserve" xmlns:serif="http://www.serif.com/" style="fill-rule:evenodd;clip-rule:evenodd;stroke-linejoin:round;stroke-miterlimit:2;"><g><path d="M58.128,58.128c1.722,-1.981 3.581,-3.84 5.562,-5.561c1.722,-1.982 3.58,-3.841 5.562,-5.562c1.721,-1.982 3.58,-3.841 5.562,-5.562c1.721,-1.982 3.58,-3.841 5.562,-5.562c1.721,-1.982 3.58,-3.841 5.562,-5.562c1.721,-1.982 3.58,-3.841 5.562,-5.562c1.721,-1.982 3.58,-3.841 5.562,-5.562c10.213,-11.759 25.276,-19.195 42.075,-19.195l481.852,-0c30.766,0 55.708,24.941 55.708,55.708l-0,481.852c-0,16.799 -7.436,31.861 -19.195,42.075c-1.722,1.982 -3.581,3.841 -5.562,5.562c-1.722,1.982 -3.58,3.841 -5.562,5.562c-1.721,1.982 -3.58,3.841 -5.562,5.562c-1.721,1.981 -3.58,3.84 -5.562,5.562c-1.721,1.981 -3.58,3.84 -5.562,5.562c-1.721,1.981 -3.58,3.84 -5.562,5.561c-1.721,1.982 -3.58,3.841 -5.562,5.562c-9.778,8.493 -22.545,13.634 -36.513,13.634l-481.852,-0c-30.766,-0 -55.708,-24.942 -55.708,-55.709l0,-481.852c0,-13.968 5.141,-26.735 13.633,-36.513Zm284.827,422.287l71.711,-0l47.513,-203.033l-64.924,-0l-21.838,115.091l-1.18,0l-24.494,-115.091l-64.333,-0l-23.019,115.091l-1.18,0l-23.313,-115.091l-67.875,-0l47.512,203.033l71.711,-0l26.265,-123.65l1.18,0l26.264,123.65Z" style="fill:#c6c4f4;"/><path d="M618.568,618.568c-1.721,1.982 -3.58,3.841 -5.562,5.562c-1.721,1.982 -3.58,3.841 -5.561,5.562c-1.722,1.982 -3.581,3.841 -5.562,5.562c-1.722,1.982 -3.581,3.841 -5.562,5.562c-1.721,1.982 -3.58,3.841 -5.562,5.562c-1.721,1.982 -3.58,3.84 -5.562,5.562c-1.721,1.981 -3.58,3.84 -5.562,5.562c-10.214,11.759 -25.276,19.195 -42.075,19.195l-481.852,-0c-30.767,-0 -55.708,-24.942 -55.708,-55.708l-0,-481.852c0,-16.799 7.436,-31.862 19.195,-42.075c1.721,-1.982 3.58,-3.841 5.562,-5.562c1.721,-1.982 3.58,-3.841 5.562,-5.562c1.721,-1.982 3.58,-3.841 5.562,-5.562c1.721,-1.982 3.58,-3.841 5.562,-5.562c1.721,-1.982 3.58,-3.841 5.562,-5.562c1.721,-1.982 3.58,-3.84 5.562,-5.562c1.721,-1.981 3.58,-3.84 5.561,-5.562c9.778,-8.492 22.545,-13.633 36.513,-13.633l481.852,0c30.767,0 55.709,24.942 55.709,55.708l-0,481.852c-0,13.968 -5.141,26.735 -13.634,36.513Zm-275.613,-138.153l71.711,-0l47.513,-203.033l-64.924,-0l-21.838,115.091l-1.18,0l-24.494,-115.091l-64.333,-0l-23.019,115.091l-1.18,0l-23.313,-115.091l-67.875,-0l47.512,203.033l71.711,-0l26.265,-123.65l1.18,0l26.264,123.65Z" style="fill:#fde9ff;"/></g></svg>