<?xml version="1.0" encoding="UTF-8" standalone="no"?><!DOCTYPE svg PUBLIC "-//W3C//DTD SVG 1.1//EN" "http://www.w3.org/Graphics/SVG/1.1/DTD/svg11.dtd"><svg width="100%" height="100%" viewBox="0 0 2134 2134" version="1.1" xmlns="http://www.w3.org/2000/svg" xmlns:xlink="http://www.w3.org/1999/xlink" xml:space="preserve" xmlns:serif="http://www.serif.com/" style="fill-rule:evenodd;clip-rule:evenodd;stroke-linejoin:round;stroke-miterlimit:2;"><g><path d="M183.254,183.254c5.426,-6.248 11.287,-12.108 17.534,-17.534c5.426,-6.248 11.287,-12.108 17.534,-17.535c5.427,-6.247 11.287,-12.108 17.535,-17.534c5.426,-6.247 11.286,-12.108 17.534,-17.534c5.426,-6.248 11.287,-12.108 17.534,-17.534c5.426,-6.248 11.287,-12.108 17.534,-17.535c5.427,-6.247 11.287,-12.108 17.535,-17.534c32.199,-37.073 79.684,-60.514 132.644,-60.514l1519.07,0c96.994,0 175.623,78.629 175.623,175.624l0,1519.07c0,52.959 -23.441,100.444 -60.514,132.644c-5.426,6.247 -11.287,12.108 -17.534,17.534c-5.426,6.248 -11.287,12.108 -17.534,17.534c-5.427,6.248 -11.287,12.108 -17.535,17.535c-5.426,6.247 -11.286,12.107 -17.534,17.534c-5.426,6.247 -11.286,12.108 -17.534,17.534c-5.426,6.248 -11.287,12.108 -17.534,17.534c-5.427,6.248 -11.287,12.108 -17.535,17.534c-30.825,26.774 -71.074,42.98 -115.109,42.98l-1519.07,0c-96.995,0 -175.624,-78.629 -175.624,-175.623l-0,-1519.07c-0,-44.035 16.206,-84.285 42.98,-115.11Zm897.937,1331.29l226.073,0l149.786,-640.076l-204.676,-0l-68.845,362.834l-3.722,-0l-77.218,-362.834l-202.815,-0l-72.567,362.834l-3.721,-0l-73.497,-362.834l-213.979,-0l149.785,640.076l226.073,0l82.801,-389.814l3.721,0l82.801,389.814Z" style="fill:#8c88e3;"/><path d="M1950.08,1950.08c-5.426,6.248 -11.286,12.108 -17.534,17.535c-5.426,6.247 -11.286,12.108 -17.534,17.534c-5.426,6.248 -11.287,12.108 -17.534,17.534c-5.427,6.248 -11.287,12.108 -17.534,17.534c-5.427,6.248 -11.287,12.108 -17.535,17.535c-5.426,6.247 -11.286,12.108 -17.534,17.534c-5.426,6.247 -11.287,12.108 -17.534,17.534c-32.2,37.073 -79.685,60.514 -132.644,60.514l-1519.07,0c-96.995,0 -175.624,-78.629 -175.624,-175.623l0,-1519.07c0,-52.96 23.441,-100.445 60.514,-132.644c5.426,-6.248 11.287,-12.108 17.534,-17.535c5.427,-6.247 11.287,-12.108 17.535,-17.534c5.426,-6.247 11.286,-12.108 17.534,-17.534c5.426,-6.248 11.287,-12.108 17.534,-17.534c5.426,-6.248 11.287,-12.108 17.534,-17.535c5.427,-6.247 11.287,-12.108 17.535,-17.534c5.426,-6.247 11.286,-12.108 17.534,-17.534c30.825,-26.774 71.075,-42.98 115.11,-42.98l1519.07,-0c96.994,0 175.623,78.629 175.623,175.624l0,1519.07c0,44.035 -16.206,84.284 -42.98,115.109Zm-868.888,-435.538l226.073,0l149.786,-640.076l-204.676,-0l-68.845,362.834l-3.722,-0l-77.218,-362.834l-202.815,-0l-72.567,362.834l-3.721,-0l-73.497,-362.834l-213.979,-0l149.785,640.076l226.073,0l82.801,-389.814l3.721,0l82.801,389.814Z" style="fill:#c6c4f4;"/></g></svg>